<?xml version="1.0" encoding="utf-8" standalone="no"?>
<!DOCTYPE svg PUBLIC "-//W3C//DTD SVG 1.1//EN"
  "http://www.w3.org/Graphics/SVG/1.1/DTD/svg11.dtd">
<svg xmlns:xlink="http://www.w3.org/1999/xlink" width="521.085937pt" height="377.39625pt" viewBox="0 0 521.085937 377.39625" xmlns="http://www.w3.org/2000/svg" version="1.1">
 <metadata>
  <rdf:RDF xmlns:dc="http://purl.org/dc/elements/1.1/" xmlns:cc="http://creativecommons.org/ns#" xmlns:rdf="http://www.w3.org/1999/02/22-rdf-syntax-ns#">
   <cc:Work>
    <dc:type rdf:resource="http://purl.org/dc/dcmitype/StillImage"/>
    <dc:date>2026-03-09T18:43:27.321977</dc:date>
    <dc:format>image/svg+xml</dc:format>
    <dc:creator>
     <cc:Agent>
      <dc:title>Matplotlib v3.10.8, https://matplotlib.org/</dc:title>
     </cc:Agent>
    </dc:creator>
   </cc:Work>
  </rdf:RDF>
 </metadata>
 <defs>
  <style type="text/css">*{stroke-linejoin: round; stroke-linecap: butt}</style>
 </defs>
 <g id="figure_1">
  <g id="patch_1">
   <path d="M 0 377.39625 
L 521.085937 377.39625 
L 521.085937 0 
L 0 0 
z
" style="fill: #ffffff"/>
  </g>
  <g id="axes_1">
   <g id="patch_2">
    <path d="M 67.485938 339.84 
L 513.885937 339.84 
L 513.885937 7.2 
L 67.485938 7.2 
z
" style="fill: #ffffff"/>
   </g>
   <g id="patch_3">
    <path d="M 67.485938 8.53056 
L 492.628795 8.53056 
L 492.628795 19.17504 
L 67.485938 19.17504 
z
" clip-path="url(#p9dca6c9e40)" style="fill: #3274a1"/>
   </g>
   <g id="patch_4">
    <path d="M 67.485938 21.83616 
L 420.382296 21.83616 
L 420.382296 32.48064 
L 67.485938 32.48064 
z
" clip-path="url(#p9dca6c9e40)" style="fill: #3274a1"/>
   </g>
   <g id="patch_5">
    <path d="M 67.485938 35.14176 
L 364.808066 35.14176 
L 364.808066 45.78624 
L 67.485938 45.78624 
z
" clip-path="url(#p9dca6c9e40)" style="fill: #3274a1"/>
   </g>
   <g id="patch_6">
    <path d="M 67.485938 48.44736 
L 317.569971 48.44736 
L 317.569971 59.09184 
L 67.485938 59.09184 
z
" clip-path="url(#p9dca6c9e40)" style="fill: #3274a1"/>
   </g>
   <g id="patch_7">
    <path d="M 67.485938 61.75296 
L 314.79126 61.75296 
L 314.79126 72.39744 
L 67.485938 72.39744 
z
" clip-path="url(#p9dca6c9e40)" style="fill: #3274a1"/>
   </g>
   <g id="patch_8">
    <path d="M 67.485938 75.05856 
L 292.561568 75.05856 
L 292.561568 85.70304 
L 67.485938 85.70304 
z
" clip-path="url(#p9dca6c9e40)" style="fill: #3274a1"/>
   </g>
   <g id="patch_9">
    <path d="M 67.485938 88.36416 
L 256.438318 88.36416 
L 256.438318 99.00864 
L 67.485938 99.00864 
z
" clip-path="url(#p9dca6c9e40)" style="fill: #3274a1"/>
   </g>
   <g id="patch_10">
    <path d="M 67.485938 101.66976 
L 245.323473 101.66976 
L 245.323473 112.31424 
L 67.485938 112.31424 
z
" clip-path="url(#p9dca6c9e40)" style="fill: #3274a1"/>
   </g>
   <g id="patch_11">
    <path d="M 67.485938 114.97536 
L 228.651204 114.97536 
L 228.651204 125.61984 
L 67.485938 125.61984 
z
" clip-path="url(#p9dca6c9e40)" style="fill: #3274a1"/>
   </g>
   <g id="patch_12">
    <path d="M 67.485938 128.28096 
L 225.872492 128.28096 
L 225.872492 138.92544 
L 67.485938 138.92544 
z
" clip-path="url(#p9dca6c9e40)" style="fill: #3274a1"/>
   </g>
   <g id="patch_13">
    <path d="M 67.485938 141.58656 
L 214.757646 141.58656 
L 214.757646 152.23104 
L 67.485938 152.23104 
z
" clip-path="url(#p9dca6c9e40)" style="fill: #3274a1"/>
   </g>
   <g id="patch_14">
    <path d="M 67.485938 154.89216 
L 214.757646 154.89216 
L 214.757646 165.53664 
L 67.485938 165.53664 
z
" clip-path="url(#p9dca6c9e40)" style="fill: #3274a1"/>
   </g>
   <g id="patch_15">
    <path d="M 67.485938 168.19776 
L 206.421512 168.19776 
L 206.421512 178.84224 
L 67.485938 178.84224 
z
" clip-path="url(#p9dca6c9e40)" style="fill: #3274a1"/>
   </g>
   <g id="patch_16">
    <path d="M 67.485938 181.50336 
L 203.6428 181.50336 
L 203.6428 192.14784 
L 67.485938 192.14784 
z
" clip-path="url(#p9dca6c9e40)" style="fill: #3274a1"/>
   </g>
   <g id="patch_17">
    <path d="M 67.485938 194.80896 
L 198.085377 194.80896 
L 198.085377 205.45344 
L 67.485938 205.45344 
z
" clip-path="url(#p9dca6c9e40)" style="fill: #3274a1"/>
   </g>
   <g id="patch_18">
    <path d="M 67.485938 208.11456 
L 195.306666 208.11456 
L 195.306666 218.75904 
L 67.485938 218.75904 
z
" clip-path="url(#p9dca6c9e40)" style="fill: #3274a1"/>
   </g>
   <g id="patch_19">
    <path d="M 67.485938 221.42016 
L 192.527954 221.42016 
L 192.527954 232.06464 
L 67.485938 232.06464 
z
" clip-path="url(#p9dca6c9e40)" style="fill: #3274a1"/>
   </g>
   <g id="patch_20">
    <path d="M 67.485938 234.72576 
L 192.527954 234.72576 
L 192.527954 245.37024 
L 67.485938 245.37024 
z
" clip-path="url(#p9dca6c9e40)" style="fill: #3274a1"/>
   </g>
   <g id="patch_21">
    <path d="M 67.485938 248.03136 
L 192.527954 248.03136 
L 192.527954 258.67584 
L 67.485938 258.67584 
z
" clip-path="url(#p9dca6c9e40)" style="fill: #3274a1"/>
   </g>
   <g id="patch_22">
    <path d="M 67.485938 261.33696 
L 192.527954 261.33696 
L 192.527954 271.98144 
L 67.485938 271.98144 
z
" clip-path="url(#p9dca6c9e40)" style="fill: #3274a1"/>
   </g>
   <g id="patch_23">
    <path d="M 67.485938 274.64256 
L 192.527954 274.64256 
L 192.527954 285.28704 
L 67.485938 285.28704 
z
" clip-path="url(#p9dca6c9e40)" style="fill: #3274a1"/>
   </g>
   <g id="patch_24">
    <path d="M 67.485938 287.94816 
L 186.970531 287.94816 
L 186.970531 298.59264 
L 67.485938 298.59264 
z
" clip-path="url(#p9dca6c9e40)" style="fill: #3274a1"/>
   </g>
   <g id="patch_25">
    <path d="M 67.485938 301.25376 
L 181.413108 301.25376 
L 181.413108 311.89824 
L 67.485938 311.89824 
z
" clip-path="url(#p9dca6c9e40)" style="fill: #3274a1"/>
   </g>
   <g id="patch_26">
    <path d="M 67.485938 314.55936 
L 181.413108 314.55936 
L 181.413108 325.20384 
L 67.485938 325.20384 
z
" clip-path="url(#p9dca6c9e40)" style="fill: #3274a1"/>
   </g>
   <g id="patch_27">
    <path d="M 67.485938 327.86496 
L 181.413108 327.86496 
L 181.413108 338.50944 
L 67.485938 338.50944 
z
" clip-path="url(#p9dca6c9e40)" style="fill: #3274a1"/>
   </g>
   <g id="matplotlib.axis_1">
    <g id="xtick_1">
     <g id="line2d_1">
      <defs>
       <path id="m171e6fba1f" d="M 0 0 
L 0 3.5 
" style="stroke: #000000; stroke-width: 0.8"/>
      </defs>
      <g>
       <use xlink:href="#m171e6fba1f" x="67.485938" y="339.84" style="stroke: #000000; stroke-width: 0.8"/>
      </g>
     </g>
     <g id="text_1">
      <!-- 0 -->
      <g transform="translate(64.304688 354.438437) scale(0.1 -0.1)">
       <defs>
        <path id="DejaVuSans-30" d="M 2034 4250 
Q 1547 4250 1301 3770 
Q 1056 3291 1056 2328 
Q 1056 1369 1301 889 
Q 1547 409 2034 409 
Q 2525 409 2770 889 
Q 3016 1369 3016 2328 
Q 3016 3291 2770 3770 
Q 2525 4250 2034 4250 
z
M 2034 4750 
Q 2819 4750 3233 4129 
Q 3647 3509 3647 2328 
Q 3647 1150 3233 529 
Q 2819 -91 2034 -91 
Q 1250 -91 836 529 
Q 422 1150 422 2328 
Q 422 3509 836 4129 
Q 1250 4750 2034 4750 
z
" transform="scale(0.015625)"/>
       </defs>
       <use xlink:href="#DejaVuSans-30"/>
      </g>
     </g>
    </g>
    <g id="xtick_2">
     <g id="line2d_2">
      <g>
       <use xlink:href="#m171e6fba1f" x="136.953725" y="339.84" style="stroke: #000000; stroke-width: 0.8"/>
      </g>
     </g>
     <g id="text_2">
      <!-- 50 -->
      <g transform="translate(130.591225 354.438437) scale(0.1 -0.1)">
       <defs>
        <path id="DejaVuSans-35" d="M 691 4666 
L 3169 4666 
L 3169 4134 
L 1269 4134 
L 1269 2991 
Q 1406 3038 1543 3061 
Q 1681 3084 1819 3084 
Q 2600 3084 3056 2656 
Q 3513 2228 3513 1497 
Q 3513 744 3044 326 
Q 2575 -91 1722 -91 
Q 1428 -91 1123 -41 
Q 819 9 494 109 
L 494 744 
Q 775 591 1075 516 
Q 1375 441 1709 441 
Q 2250 441 2565 725 
Q 2881 1009 2881 1497 
Q 2881 1984 2565 2268 
Q 2250 2553 1709 2553 
Q 1456 2553 1204 2497 
Q 953 2441 691 2322 
L 691 4666 
z
" transform="scale(0.015625)"/>
       </defs>
       <use xlink:href="#DejaVuSans-35"/>
       <use xlink:href="#DejaVuSans-30" transform="translate(63.623047 0)"/>
      </g>
     </g>
    </g>
    <g id="xtick_3">
     <g id="line2d_3">
      <g>
       <use xlink:href="#m171e6fba1f" x="206.421512" y="339.84" style="stroke: #000000; stroke-width: 0.8"/>
      </g>
     </g>
     <g id="text_3">
      <!-- 100 -->
      <g transform="translate(196.877762 354.438437) scale(0.1 -0.1)">
       <defs>
        <path id="DejaVuSans-31" d="M 794 531 
L 1825 531 
L 1825 4091 
L 703 3866 
L 703 4441 
L 1819 4666 
L 2450 4666 
L 2450 531 
L 3481 531 
L 3481 0 
L 794 0 
L 794 531 
z
" transform="scale(0.015625)"/>
       </defs>
       <use xlink:href="#DejaVuSans-31"/>
       <use xlink:href="#DejaVuSans-30" transform="translate(63.623047 0)"/>
       <use xlink:href="#DejaVuSans-30" transform="translate(127.246094 0)"/>
      </g>
     </g>
    </g>
    <g id="xtick_4">
     <g id="line2d_4">
      <g>
       <use xlink:href="#m171e6fba1f" x="275.889299" y="339.84" style="stroke: #000000; stroke-width: 0.8"/>
      </g>
     </g>
     <g id="text_4">
      <!-- 150 -->
      <g transform="translate(266.345549 354.438437) scale(0.1 -0.1)">
       <use xlink:href="#DejaVuSans-31"/>
       <use xlink:href="#DejaVuSans-35" transform="translate(63.623047 0)"/>
       <use xlink:href="#DejaVuSans-30" transform="translate(127.246094 0)"/>
      </g>
     </g>
    </g>
    <g id="xtick_5">
     <g id="line2d_5">
      <g>
       <use xlink:href="#m171e6fba1f" x="345.357086" y="339.84" style="stroke: #000000; stroke-width: 0.8"/>
      </g>
     </g>
     <g id="text_5">
      <!-- 200 -->
      <g transform="translate(335.813336 354.438437) scale(0.1 -0.1)">
       <defs>
        <path id="DejaVuSans-32" d="M 1228 531 
L 3431 531 
L 3431 0 
L 469 0 
L 469 531 
Q 828 903 1448 1529 
Q 2069 2156 2228 2338 
Q 2531 2678 2651 2914 
Q 2772 3150 2772 3378 
Q 2772 3750 2511 3984 
Q 2250 4219 1831 4219 
Q 1534 4219 1204 4116 
Q 875 4013 500 3803 
L 500 4441 
Q 881 4594 1212 4672 
Q 1544 4750 1819 4750 
Q 2544 4750 2975 4387 
Q 3406 4025 3406 3419 
Q 3406 3131 3298 2873 
Q 3191 2616 2906 2266 
Q 2828 2175 2409 1742 
Q 1991 1309 1228 531 
z
" transform="scale(0.015625)"/>
       </defs>
       <use xlink:href="#DejaVuSans-32"/>
       <use xlink:href="#DejaVuSans-30" transform="translate(63.623047 0)"/>
       <use xlink:href="#DejaVuSans-30" transform="translate(127.246094 0)"/>
      </g>
     </g>
    </g>
    <g id="xtick_6">
     <g id="line2d_6">
      <g>
       <use xlink:href="#m171e6fba1f" x="414.824873" y="339.84" style="stroke: #000000; stroke-width: 0.8"/>
      </g>
     </g>
     <g id="text_6">
      <!-- 250 -->
      <g transform="translate(405.281123 354.438437) scale(0.1 -0.1)">
       <use xlink:href="#DejaVuSans-32"/>
       <use xlink:href="#DejaVuSans-35" transform="translate(63.623047 0)"/>
       <use xlink:href="#DejaVuSans-30" transform="translate(127.246094 0)"/>
      </g>
     </g>
    </g>
    <g id="xtick_7">
     <g id="line2d_7">
      <g>
       <use xlink:href="#m171e6fba1f" x="484.29266" y="339.84" style="stroke: #000000; stroke-width: 0.8"/>
      </g>
     </g>
     <g id="text_7">
      <!-- 300 -->
      <g transform="translate(474.74891 354.438437) scale(0.1 -0.1)">
       <defs>
        <path id="DejaVuSans-33" d="M 2597 2516 
Q 3050 2419 3304 2112 
Q 3559 1806 3559 1356 
Q 3559 666 3084 287 
Q 2609 -91 1734 -91 
Q 1441 -91 1130 -33 
Q 819 25 488 141 
L 488 750 
Q 750 597 1062 519 
Q 1375 441 1716 441 
Q 2309 441 2620 675 
Q 2931 909 2931 1356 
Q 2931 1769 2642 2001 
Q 2353 2234 1838 2234 
L 1294 2234 
L 1294 2753 
L 1863 2753 
Q 2328 2753 2575 2939 
Q 2822 3125 2822 3475 
Q 2822 3834 2567 4026 
Q 2313 4219 1838 4219 
Q 1578 4219 1281 4162 
Q 984 4106 628 3988 
L 628 4550 
Q 988 4650 1302 4700 
Q 1616 4750 1894 4750 
Q 2613 4750 3031 4423 
Q 3450 4097 3450 3541 
Q 3450 3153 3228 2886 
Q 3006 2619 2597 2516 
z
" transform="scale(0.015625)"/>
       </defs>
       <use xlink:href="#DejaVuSans-33"/>
       <use xlink:href="#DejaVuSans-30" transform="translate(63.623047 0)"/>
       <use xlink:href="#DejaVuSans-30" transform="translate(127.246094 0)"/>
      </g>
     </g>
    </g>
    <g id="text_8">
     <!-- count -->
     <g transform="translate(276.579688 368.116562) scale(0.1 -0.1)">
      <defs>
       <path id="DejaVuSans-63" d="M 3122 3366 
L 3122 2828 
Q 2878 2963 2633 3030 
Q 2388 3097 2138 3097 
Q 1578 3097 1268 2742 
Q 959 2388 959 1747 
Q 959 1106 1268 751 
Q 1578 397 2138 397 
Q 2388 397 2633 464 
Q 2878 531 3122 666 
L 3122 134 
Q 2881 22 2623 -34 
Q 2366 -91 2075 -91 
Q 1284 -91 818 406 
Q 353 903 353 1747 
Q 353 2603 823 3093 
Q 1294 3584 2113 3584 
Q 2378 3584 2631 3529 
Q 2884 3475 3122 3366 
z
" transform="scale(0.015625)"/>
       <path id="DejaVuSans-6f" d="M 1959 3097 
Q 1497 3097 1228 2736 
Q 959 2375 959 1747 
Q 959 1119 1226 758 
Q 1494 397 1959 397 
Q 2419 397 2687 759 
Q 2956 1122 2956 1747 
Q 2956 2369 2687 2733 
Q 2419 3097 1959 3097 
z
M 1959 3584 
Q 2709 3584 3137 3096 
Q 3566 2609 3566 1747 
Q 3566 888 3137 398 
Q 2709 -91 1959 -91 
Q 1206 -91 779 398 
Q 353 888 353 1747 
Q 353 2609 779 3096 
Q 1206 3584 1959 3584 
z
" transform="scale(0.015625)"/>
       <path id="DejaVuSans-75" d="M 544 1381 
L 544 3500 
L 1119 3500 
L 1119 1403 
Q 1119 906 1312 657 
Q 1506 409 1894 409 
Q 2359 409 2629 706 
Q 2900 1003 2900 1516 
L 2900 3500 
L 3475 3500 
L 3475 0 
L 2900 0 
L 2900 538 
Q 2691 219 2414 64 
Q 2138 -91 1772 -91 
Q 1169 -91 856 284 
Q 544 659 544 1381 
z
M 1991 3584 
L 1991 3584 
z
" transform="scale(0.015625)"/>
       <path id="DejaVuSans-6e" d="M 3513 2113 
L 3513 0 
L 2938 0 
L 2938 2094 
Q 2938 2591 2744 2837 
Q 2550 3084 2163 3084 
Q 1697 3084 1428 2787 
Q 1159 2491 1159 1978 
L 1159 0 
L 581 0 
L 581 3500 
L 1159 3500 
L 1159 2956 
Q 1366 3272 1645 3428 
Q 1925 3584 2291 3584 
Q 2894 3584 3203 3211 
Q 3513 2838 3513 2113 
z
" transform="scale(0.015625)"/>
       <path id="DejaVuSans-74" d="M 1172 4494 
L 1172 3500 
L 2356 3500 
L 2356 3053 
L 1172 3053 
L 1172 1153 
Q 1172 725 1289 603 
Q 1406 481 1766 481 
L 2356 481 
L 2356 0 
L 1766 0 
Q 1100 0 847 248 
Q 594 497 594 1153 
L 594 3053 
L 172 3053 
L 172 3500 
L 594 3500 
L 594 4494 
L 1172 4494 
z
" transform="scale(0.015625)"/>
      </defs>
      <use xlink:href="#DejaVuSans-63"/>
      <use xlink:href="#DejaVuSans-6f" transform="translate(54.980469 0)"/>
      <use xlink:href="#DejaVuSans-75" transform="translate(116.162109 0)"/>
      <use xlink:href="#DejaVuSans-6e" transform="translate(179.541016 0)"/>
      <use xlink:href="#DejaVuSans-74" transform="translate(242.919922 0)"/>
     </g>
    </g>
   </g>
   <g id="matplotlib.axis_2">
    <g id="ytick_1">
     <g id="line2d_8">
      <defs>
       <path id="m7102b62907" d="M 0 0 
L -3.5 0 
" style="stroke: #000000; stroke-width: 0.8"/>
      </defs>
      <g>
       <use xlink:href="#m7102b62907" x="67.485938" y="13.8528" style="stroke: #000000; stroke-width: 0.8"/>
      </g>
     </g>
     <g id="text_9">
      <!-- ko:K03406 -->
      <g transform="translate(7.2 17.652019) scale(0.1 -0.1)">
       <defs>
        <path id="DejaVuSans-6b" d="M 581 4863 
L 1159 4863 
L 1159 1991 
L 2875 3500 
L 3609 3500 
L 1753 1863 
L 3688 0 
L 2938 0 
L 1159 1709 
L 1159 0 
L 581 0 
L 581 4863 
z
" transform="scale(0.015625)"/>
        <path id="DejaVuSans-3a" d="M 750 794 
L 1409 794 
L 1409 0 
L 750 0 
L 750 794 
z
M 750 3309 
L 1409 3309 
L 1409 2516 
L 750 2516 
L 750 3309 
z
" transform="scale(0.015625)"/>
        <path id="DejaVuSans-4b" d="M 628 4666 
L 1259 4666 
L 1259 2694 
L 3353 4666 
L 4166 4666 
L 1850 2491 
L 4331 0 
L 3500 0 
L 1259 2247 
L 1259 0 
L 628 0 
L 628 4666 
z
" transform="scale(0.015625)"/>
        <path id="DejaVuSans-34" d="M 2419 4116 
L 825 1625 
L 2419 1625 
L 2419 4116 
z
M 2253 4666 
L 3047 4666 
L 3047 1625 
L 3713 1625 
L 3713 1100 
L 3047 1100 
L 3047 0 
L 2419 0 
L 2419 1100 
L 313 1100 
L 313 1709 
L 2253 4666 
z
" transform="scale(0.015625)"/>
        <path id="DejaVuSans-36" d="M 2113 2584 
Q 1688 2584 1439 2293 
Q 1191 2003 1191 1497 
Q 1191 994 1439 701 
Q 1688 409 2113 409 
Q 2538 409 2786 701 
Q 3034 994 3034 1497 
Q 3034 2003 2786 2293 
Q 2538 2584 2113 2584 
z
M 3366 4563 
L 3366 3988 
Q 3128 4100 2886 4159 
Q 2644 4219 2406 4219 
Q 1781 4219 1451 3797 
Q 1122 3375 1075 2522 
Q 1259 2794 1537 2939 
Q 1816 3084 2150 3084 
Q 2853 3084 3261 2657 
Q 3669 2231 3669 1497 
Q 3669 778 3244 343 
Q 2819 -91 2113 -91 
Q 1303 -91 875 529 
Q 447 1150 447 2328 
Q 447 3434 972 4092 
Q 1497 4750 2381 4750 
Q 2619 4750 2861 4703 
Q 3103 4656 3366 4563 
z
" transform="scale(0.015625)"/>
       </defs>
       <use xlink:href="#DejaVuSans-6b"/>
       <use xlink:href="#DejaVuSans-6f" transform="translate(54.285156 0)"/>
       <use xlink:href="#DejaVuSans-3a" transform="translate(115.466797 0)"/>
       <use xlink:href="#DejaVuSans-4b" transform="translate(149.158203 0)"/>
       <use xlink:href="#DejaVuSans-30" transform="translate(214.734375 0)"/>
       <use xlink:href="#DejaVuSans-33" transform="translate(278.357422 0)"/>
       <use xlink:href="#DejaVuSans-34" transform="translate(341.980469 0)"/>
       <use xlink:href="#DejaVuSans-30" transform="translate(405.603516 0)"/>
       <use xlink:href="#DejaVuSans-36" transform="translate(469.226562 0)"/>
      </g>
     </g>
    </g>
    <g id="ytick_2">
     <g id="line2d_9">
      <g>
       <use xlink:href="#m7102b62907" x="67.485938" y="27.1584" style="stroke: #000000; stroke-width: 0.8"/>
      </g>
     </g>
     <g id="text_10">
      <!-- ko:K01990 -->
      <g transform="translate(7.2 30.957619) scale(0.1 -0.1)">
       <defs>
        <path id="DejaVuSans-39" d="M 703 97 
L 703 672 
Q 941 559 1184 500 
Q 1428 441 1663 441 
Q 2288 441 2617 861 
Q 2947 1281 2994 2138 
Q 2813 1869 2534 1725 
Q 2256 1581 1919 1581 
Q 1219 1581 811 2004 
Q 403 2428 403 3163 
Q 403 3881 828 4315 
Q 1253 4750 1959 4750 
Q 2769 4750 3195 4129 
Q 3622 3509 3622 2328 
Q 3622 1225 3098 567 
Q 2575 -91 1691 -91 
Q 1453 -91 1209 -44 
Q 966 3 703 97 
z
M 1959 2075 
Q 2384 2075 2632 2365 
Q 2881 2656 2881 3163 
Q 2881 3666 2632 3958 
Q 2384 4250 1959 4250 
Q 1534 4250 1286 3958 
Q 1038 3666 1038 3163 
Q 1038 2656 1286 2365 
Q 1534 2075 1959 2075 
z
" transform="scale(0.015625)"/>
       </defs>
       <use xlink:href="#DejaVuSans-6b"/>
       <use xlink:href="#DejaVuSans-6f" transform="translate(54.285156 0)"/>
       <use xlink:href="#DejaVuSans-3a" transform="translate(115.466797 0)"/>
       <use xlink:href="#DejaVuSans-4b" transform="translate(149.158203 0)"/>
       <use xlink:href="#DejaVuSans-30" transform="translate(214.734375 0)"/>
       <use xlink:href="#DejaVuSans-31" transform="translate(278.357422 0)"/>
       <use xlink:href="#DejaVuSans-39" transform="translate(341.980469 0)"/>
       <use xlink:href="#DejaVuSans-39" transform="translate(405.603516 0)"/>
       <use xlink:href="#DejaVuSans-30" transform="translate(469.226562 0)"/>
      </g>
     </g>
    </g>
    <g id="ytick_3">
     <g id="line2d_10">
      <g>
       <use xlink:href="#m7102b62907" x="67.485938" y="40.464" style="stroke: #000000; stroke-width: 0.8"/>
      </g>
     </g>
     <g id="text_11">
      <!-- ko:K01992 -->
      <g transform="translate(7.2 44.263219) scale(0.1 -0.1)">
       <use xlink:href="#DejaVuSans-6b"/>
       <use xlink:href="#DejaVuSans-6f" transform="translate(54.285156 0)"/>
       <use xlink:href="#DejaVuSans-3a" transform="translate(115.466797 0)"/>
       <use xlink:href="#DejaVuSans-4b" transform="translate(149.158203 0)"/>
       <use xlink:href="#DejaVuSans-30" transform="translate(214.734375 0)"/>
       <use xlink:href="#DejaVuSans-31" transform="translate(278.357422 0)"/>
       <use xlink:href="#DejaVuSans-39" transform="translate(341.980469 0)"/>
       <use xlink:href="#DejaVuSans-39" transform="translate(405.603516 0)"/>
       <use xlink:href="#DejaVuSans-32" transform="translate(469.226562 0)"/>
      </g>
     </g>
    </g>
    <g id="ytick_4">
     <g id="line2d_11">
      <g>
       <use xlink:href="#m7102b62907" x="67.485938" y="53.7696" style="stroke: #000000; stroke-width: 0.8"/>
      </g>
     </g>
     <g id="text_12">
      <!-- ko:K03088 -->
      <g transform="translate(7.2 57.568819) scale(0.1 -0.1)">
       <defs>
        <path id="DejaVuSans-38" d="M 2034 2216 
Q 1584 2216 1326 1975 
Q 1069 1734 1069 1313 
Q 1069 891 1326 650 
Q 1584 409 2034 409 
Q 2484 409 2743 651 
Q 3003 894 3003 1313 
Q 3003 1734 2745 1975 
Q 2488 2216 2034 2216 
z
M 1403 2484 
Q 997 2584 770 2862 
Q 544 3141 544 3541 
Q 544 4100 942 4425 
Q 1341 4750 2034 4750 
Q 2731 4750 3128 4425 
Q 3525 4100 3525 3541 
Q 3525 3141 3298 2862 
Q 3072 2584 2669 2484 
Q 3125 2378 3379 2068 
Q 3634 1759 3634 1313 
Q 3634 634 3220 271 
Q 2806 -91 2034 -91 
Q 1263 -91 848 271 
Q 434 634 434 1313 
Q 434 1759 690 2068 
Q 947 2378 1403 2484 
z
M 1172 3481 
Q 1172 3119 1398 2916 
Q 1625 2713 2034 2713 
Q 2441 2713 2670 2916 
Q 2900 3119 2900 3481 
Q 2900 3844 2670 4047 
Q 2441 4250 2034 4250 
Q 1625 4250 1398 4047 
Q 1172 3844 1172 3481 
z
" transform="scale(0.015625)"/>
       </defs>
       <use xlink:href="#DejaVuSans-6b"/>
       <use xlink:href="#DejaVuSans-6f" transform="translate(54.285156 0)"/>
       <use xlink:href="#DejaVuSans-3a" transform="translate(115.466797 0)"/>
       <use xlink:href="#DejaVuSans-4b" transform="translate(149.158203 0)"/>
       <use xlink:href="#DejaVuSans-30" transform="translate(214.734375 0)"/>
       <use xlink:href="#DejaVuSans-33" transform="translate(278.357422 0)"/>
       <use xlink:href="#DejaVuSans-30" transform="translate(341.980469 0)"/>
       <use xlink:href="#DejaVuSans-38" transform="translate(405.603516 0)"/>
       <use xlink:href="#DejaVuSans-38" transform="translate(469.226562 0)"/>
      </g>
     </g>
    </g>
    <g id="ytick_5">
     <g id="line2d_12">
      <g>
       <use xlink:href="#m7102b62907" x="67.485938" y="67.0752" style="stroke: #000000; stroke-width: 0.8"/>
      </g>
     </g>
     <g id="text_13">
      <!-- ko:K02030 -->
      <g transform="translate(7.2 70.874419) scale(0.1 -0.1)">
       <use xlink:href="#DejaVuSans-6b"/>
       <use xlink:href="#DejaVuSans-6f" transform="translate(54.285156 0)"/>
       <use xlink:href="#DejaVuSans-3a" transform="translate(115.466797 0)"/>
       <use xlink:href="#DejaVuSans-4b" transform="translate(149.158203 0)"/>
       <use xlink:href="#DejaVuSans-30" transform="translate(214.734375 0)"/>
       <use xlink:href="#DejaVuSans-32" transform="translate(278.357422 0)"/>
       <use xlink:href="#DejaVuSans-30" transform="translate(341.980469 0)"/>
       <use xlink:href="#DejaVuSans-33" transform="translate(405.603516 0)"/>
       <use xlink:href="#DejaVuSans-30" transform="translate(469.226562 0)"/>
      </g>
     </g>
    </g>
    <g id="ytick_6">
     <g id="line2d_13">
      <g>
       <use xlink:href="#m7102b62907" x="67.485938" y="80.3808" style="stroke: #000000; stroke-width: 0.8"/>
      </g>
     </g>
     <g id="text_14">
      <!-- ko:K02015 -->
      <g transform="translate(7.2 84.180019) scale(0.1 -0.1)">
       <use xlink:href="#DejaVuSans-6b"/>
       <use xlink:href="#DejaVuSans-6f" transform="translate(54.285156 0)"/>
       <use xlink:href="#DejaVuSans-3a" transform="translate(115.466797 0)"/>
       <use xlink:href="#DejaVuSans-4b" transform="translate(149.158203 0)"/>
       <use xlink:href="#DejaVuSans-30" transform="translate(214.734375 0)"/>
       <use xlink:href="#DejaVuSans-32" transform="translate(278.357422 0)"/>
       <use xlink:href="#DejaVuSans-30" transform="translate(341.980469 0)"/>
       <use xlink:href="#DejaVuSans-31" transform="translate(405.603516 0)"/>
       <use xlink:href="#DejaVuSans-35" transform="translate(469.226562 0)"/>
      </g>
     </g>
    </g>
    <g id="ytick_7">
     <g id="line2d_14">
      <g>
       <use xlink:href="#m7102b62907" x="67.485938" y="93.6864" style="stroke: #000000; stroke-width: 0.8"/>
      </g>
     </g>
     <g id="text_15">
      <!-- ko:K00059 -->
      <g transform="translate(7.2 97.485619) scale(0.1 -0.1)">
       <use xlink:href="#DejaVuSans-6b"/>
       <use xlink:href="#DejaVuSans-6f" transform="translate(54.285156 0)"/>
       <use xlink:href="#DejaVuSans-3a" transform="translate(115.466797 0)"/>
       <use xlink:href="#DejaVuSans-4b" transform="translate(149.158203 0)"/>
       <use xlink:href="#DejaVuSans-30" transform="translate(214.734375 0)"/>
       <use xlink:href="#DejaVuSans-30" transform="translate(278.357422 0)"/>
       <use xlink:href="#DejaVuSans-30" transform="translate(341.980469 0)"/>
       <use xlink:href="#DejaVuSans-35" transform="translate(405.603516 0)"/>
       <use xlink:href="#DejaVuSans-39" transform="translate(469.226562 0)"/>
      </g>
     </g>
    </g>
    <g id="ytick_8">
     <g id="line2d_15">
      <g>
       <use xlink:href="#m7102b62907" x="67.485938" y="106.992" style="stroke: #000000; stroke-width: 0.8"/>
      </g>
     </g>
     <g id="text_16">
      <!-- ko:K02016 -->
      <g transform="translate(7.2 110.791219) scale(0.1 -0.1)">
       <use xlink:href="#DejaVuSans-6b"/>
       <use xlink:href="#DejaVuSans-6f" transform="translate(54.285156 0)"/>
       <use xlink:href="#DejaVuSans-3a" transform="translate(115.466797 0)"/>
       <use xlink:href="#DejaVuSans-4b" transform="translate(149.158203 0)"/>
       <use xlink:href="#DejaVuSans-30" transform="translate(214.734375 0)"/>
       <use xlink:href="#DejaVuSans-32" transform="translate(278.357422 0)"/>
       <use xlink:href="#DejaVuSans-30" transform="translate(341.980469 0)"/>
       <use xlink:href="#DejaVuSans-31" transform="translate(405.603516 0)"/>
       <use xlink:href="#DejaVuSans-36" transform="translate(469.226562 0)"/>
      </g>
     </g>
    </g>
    <g id="ytick_9">
     <g id="line2d_16">
      <g>
       <use xlink:href="#m7102b62907" x="67.485938" y="120.2976" style="stroke: #000000; stroke-width: 0.8"/>
      </g>
     </g>
     <g id="text_17">
      <!-- ko:K02014 -->
      <g transform="translate(7.2 124.096819) scale(0.1 -0.1)">
       <use xlink:href="#DejaVuSans-6b"/>
       <use xlink:href="#DejaVuSans-6f" transform="translate(54.285156 0)"/>
       <use xlink:href="#DejaVuSans-3a" transform="translate(115.466797 0)"/>
       <use xlink:href="#DejaVuSans-4b" transform="translate(149.158203 0)"/>
       <use xlink:href="#DejaVuSans-30" transform="translate(214.734375 0)"/>
       <use xlink:href="#DejaVuSans-32" transform="translate(278.357422 0)"/>
       <use xlink:href="#DejaVuSans-30" transform="translate(341.980469 0)"/>
       <use xlink:href="#DejaVuSans-31" transform="translate(405.603516 0)"/>
       <use xlink:href="#DejaVuSans-34" transform="translate(469.226562 0)"/>
      </g>
     </g>
    </g>
    <g id="ytick_10">
     <g id="line2d_17">
      <g>
       <use xlink:href="#m7102b62907" x="67.485938" y="133.6032" style="stroke: #000000; stroke-width: 0.8"/>
      </g>
     </g>
     <g id="text_18">
      <!-- ko:K07090 -->
      <g transform="translate(7.2 137.402419) scale(0.1 -0.1)">
       <defs>
        <path id="DejaVuSans-37" d="M 525 4666 
L 3525 4666 
L 3525 4397 
L 1831 0 
L 1172 0 
L 2766 4134 
L 525 4134 
L 525 4666 
z
" transform="scale(0.015625)"/>
       </defs>
       <use xlink:href="#DejaVuSans-6b"/>
       <use xlink:href="#DejaVuSans-6f" transform="translate(54.285156 0)"/>
       <use xlink:href="#DejaVuSans-3a" transform="translate(115.466797 0)"/>
       <use xlink:href="#DejaVuSans-4b" transform="translate(149.158203 0)"/>
       <use xlink:href="#DejaVuSans-30" transform="translate(214.734375 0)"/>
       <use xlink:href="#DejaVuSans-37" transform="translate(278.357422 0)"/>
       <use xlink:href="#DejaVuSans-30" transform="translate(341.980469 0)"/>
       <use xlink:href="#DejaVuSans-39" transform="translate(405.603516 0)"/>
       <use xlink:href="#DejaVuSans-30" transform="translate(469.226562 0)"/>
      </g>
     </g>
    </g>
    <g id="ytick_11">
     <g id="line2d_18">
      <g>
       <use xlink:href="#m7102b62907" x="67.485938" y="146.9088" style="stroke: #000000; stroke-width: 0.8"/>
      </g>
     </g>
     <g id="text_19">
      <!-- ko:K02035 -->
      <g transform="translate(7.2 150.708019) scale(0.1 -0.1)">
       <use xlink:href="#DejaVuSans-6b"/>
       <use xlink:href="#DejaVuSans-6f" transform="translate(54.285156 0)"/>
       <use xlink:href="#DejaVuSans-3a" transform="translate(115.466797 0)"/>
       <use xlink:href="#DejaVuSans-4b" transform="translate(149.158203 0)"/>
       <use xlink:href="#DejaVuSans-30" transform="translate(214.734375 0)"/>
       <use xlink:href="#DejaVuSans-32" transform="translate(278.357422 0)"/>
       <use xlink:href="#DejaVuSans-30" transform="translate(341.980469 0)"/>
       <use xlink:href="#DejaVuSans-33" transform="translate(405.603516 0)"/>
       <use xlink:href="#DejaVuSans-35" transform="translate(469.226562 0)"/>
      </g>
     </g>
    </g>
    <g id="ytick_12">
     <g id="line2d_19">
      <g>
       <use xlink:href="#m7102b62907" x="67.485938" y="160.2144" style="stroke: #000000; stroke-width: 0.8"/>
      </g>
     </g>
     <g id="text_20">
      <!-- ko:K02029 -->
      <g transform="translate(7.2 164.013619) scale(0.1 -0.1)">
       <use xlink:href="#DejaVuSans-6b"/>
       <use xlink:href="#DejaVuSans-6f" transform="translate(54.285156 0)"/>
       <use xlink:href="#DejaVuSans-3a" transform="translate(115.466797 0)"/>
       <use xlink:href="#DejaVuSans-4b" transform="translate(149.158203 0)"/>
       <use xlink:href="#DejaVuSans-30" transform="translate(214.734375 0)"/>
       <use xlink:href="#DejaVuSans-32" transform="translate(278.357422 0)"/>
       <use xlink:href="#DejaVuSans-30" transform="translate(341.980469 0)"/>
       <use xlink:href="#DejaVuSans-32" transform="translate(405.603516 0)"/>
       <use xlink:href="#DejaVuSans-39" transform="translate(469.226562 0)"/>
      </g>
     </g>
    </g>
    <g id="ytick_13">
     <g id="line2d_20">
      <g>
       <use xlink:href="#m7102b62907" x="67.485938" y="173.52" style="stroke: #000000; stroke-width: 0.8"/>
      </g>
     </g>
     <g id="text_21">
      <!-- ko:K06147 -->
      <g transform="translate(7.2 177.319219) scale(0.1 -0.1)">
       <use xlink:href="#DejaVuSans-6b"/>
       <use xlink:href="#DejaVuSans-6f" transform="translate(54.285156 0)"/>
       <use xlink:href="#DejaVuSans-3a" transform="translate(115.466797 0)"/>
       <use xlink:href="#DejaVuSans-4b" transform="translate(149.158203 0)"/>
       <use xlink:href="#DejaVuSans-30" transform="translate(214.734375 0)"/>
       <use xlink:href="#DejaVuSans-36" transform="translate(278.357422 0)"/>
       <use xlink:href="#DejaVuSans-31" transform="translate(341.980469 0)"/>
       <use xlink:href="#DejaVuSans-34" transform="translate(405.603516 0)"/>
       <use xlink:href="#DejaVuSans-37" transform="translate(469.226562 0)"/>
      </g>
     </g>
    </g>
    <g id="ytick_14">
     <g id="line2d_21">
      <g>
       <use xlink:href="#m7102b62907" x="67.485938" y="186.8256" style="stroke: #000000; stroke-width: 0.8"/>
      </g>
     </g>
     <g id="text_22">
      <!-- ko:K02529 -->
      <g transform="translate(7.2 190.624819) scale(0.1 -0.1)">
       <use xlink:href="#DejaVuSans-6b"/>
       <use xlink:href="#DejaVuSans-6f" transform="translate(54.285156 0)"/>
       <use xlink:href="#DejaVuSans-3a" transform="translate(115.466797 0)"/>
       <use xlink:href="#DejaVuSans-4b" transform="translate(149.158203 0)"/>
       <use xlink:href="#DejaVuSans-30" transform="translate(214.734375 0)"/>
       <use xlink:href="#DejaVuSans-32" transform="translate(278.357422 0)"/>
       <use xlink:href="#DejaVuSans-35" transform="translate(341.980469 0)"/>
       <use xlink:href="#DejaVuSans-32" transform="translate(405.603516 0)"/>
       <use xlink:href="#DejaVuSans-39" transform="translate(469.226562 0)"/>
      </g>
     </g>
    </g>
    <g id="ytick_15">
     <g id="line2d_22">
      <g>
       <use xlink:href="#m7102b62907" x="67.485938" y="200.1312" style="stroke: #000000; stroke-width: 0.8"/>
      </g>
     </g>
     <g id="text_23">
      <!-- ko:K02013 -->
      <g transform="translate(7.2 203.930419) scale(0.1 -0.1)">
       <use xlink:href="#DejaVuSans-6b"/>
       <use xlink:href="#DejaVuSans-6f" transform="translate(54.285156 0)"/>
       <use xlink:href="#DejaVuSans-3a" transform="translate(115.466797 0)"/>
       <use xlink:href="#DejaVuSans-4b" transform="translate(149.158203 0)"/>
       <use xlink:href="#DejaVuSans-30" transform="translate(214.734375 0)"/>
       <use xlink:href="#DejaVuSans-32" transform="translate(278.357422 0)"/>
       <use xlink:href="#DejaVuSans-30" transform="translate(341.980469 0)"/>
       <use xlink:href="#DejaVuSans-31" transform="translate(405.603516 0)"/>
       <use xlink:href="#DejaVuSans-33" transform="translate(469.226562 0)"/>
      </g>
     </g>
    </g>
    <g id="ytick_16">
     <g id="line2d_23">
      <g>
       <use xlink:href="#m7102b62907" x="67.485938" y="213.4368" style="stroke: #000000; stroke-width: 0.8"/>
      </g>
     </g>
     <g id="text_24">
      <!-- ko:K02033 -->
      <g transform="translate(7.2 217.236019) scale(0.1 -0.1)">
       <use xlink:href="#DejaVuSans-6b"/>
       <use xlink:href="#DejaVuSans-6f" transform="translate(54.285156 0)"/>
       <use xlink:href="#DejaVuSans-3a" transform="translate(115.466797 0)"/>
       <use xlink:href="#DejaVuSans-4b" transform="translate(149.158203 0)"/>
       <use xlink:href="#DejaVuSans-30" transform="translate(214.734375 0)"/>
       <use xlink:href="#DejaVuSans-32" transform="translate(278.357422 0)"/>
       <use xlink:href="#DejaVuSans-30" transform="translate(341.980469 0)"/>
       <use xlink:href="#DejaVuSans-33" transform="translate(405.603516 0)"/>
       <use xlink:href="#DejaVuSans-33" transform="translate(469.226562 0)"/>
      </g>
     </g>
    </g>
    <g id="ytick_17">
     <g id="line2d_24">
      <g>
       <use xlink:href="#m7102b62907" x="67.485938" y="226.7424" style="stroke: #000000; stroke-width: 0.8"/>
      </g>
     </g>
     <g id="text_25">
      <!-- ko:K17763 -->
      <g transform="translate(7.2 230.541619) scale(0.1 -0.1)">
       <use xlink:href="#DejaVuSans-6b"/>
       <use xlink:href="#DejaVuSans-6f" transform="translate(54.285156 0)"/>
       <use xlink:href="#DejaVuSans-3a" transform="translate(115.466797 0)"/>
       <use xlink:href="#DejaVuSans-4b" transform="translate(149.158203 0)"/>
       <use xlink:href="#DejaVuSans-31" transform="translate(214.734375 0)"/>
       <use xlink:href="#DejaVuSans-37" transform="translate(278.357422 0)"/>
       <use xlink:href="#DejaVuSans-37" transform="translate(341.980469 0)"/>
       <use xlink:href="#DejaVuSans-36" transform="translate(405.603516 0)"/>
       <use xlink:href="#DejaVuSans-33" transform="translate(469.226562 0)"/>
      </g>
     </g>
    </g>
    <g id="ytick_18">
     <g id="line2d_25">
      <g>
       <use xlink:href="#m7102b62907" x="67.485938" y="240.048" style="stroke: #000000; stroke-width: 0.8"/>
      </g>
     </g>
     <g id="text_26">
      <!-- ko:K03790 -->
      <g transform="translate(7.2 243.847219) scale(0.1 -0.1)">
       <use xlink:href="#DejaVuSans-6b"/>
       <use xlink:href="#DejaVuSans-6f" transform="translate(54.285156 0)"/>
       <use xlink:href="#DejaVuSans-3a" transform="translate(115.466797 0)"/>
       <use xlink:href="#DejaVuSans-4b" transform="translate(149.158203 0)"/>
       <use xlink:href="#DejaVuSans-30" transform="translate(214.734375 0)"/>
       <use xlink:href="#DejaVuSans-33" transform="translate(278.357422 0)"/>
       <use xlink:href="#DejaVuSans-37" transform="translate(341.980469 0)"/>
       <use xlink:href="#DejaVuSans-39" transform="translate(405.603516 0)"/>
       <use xlink:href="#DejaVuSans-30" transform="translate(469.226562 0)"/>
      </g>
     </g>
    </g>
    <g id="ytick_19">
     <g id="line2d_26">
      <g>
       <use xlink:href="#m7102b62907" x="67.485938" y="253.3536" style="stroke: #000000; stroke-width: 0.8"/>
      </g>
     </g>
     <g id="text_27">
      <!-- ko:K02031 -->
      <g transform="translate(7.2 257.152819) scale(0.1 -0.1)">
       <use xlink:href="#DejaVuSans-6b"/>
       <use xlink:href="#DejaVuSans-6f" transform="translate(54.285156 0)"/>
       <use xlink:href="#DejaVuSans-3a" transform="translate(115.466797 0)"/>
       <use xlink:href="#DejaVuSans-4b" transform="translate(149.158203 0)"/>
       <use xlink:href="#DejaVuSans-30" transform="translate(214.734375 0)"/>
       <use xlink:href="#DejaVuSans-32" transform="translate(278.357422 0)"/>
       <use xlink:href="#DejaVuSans-30" transform="translate(341.980469 0)"/>
       <use xlink:href="#DejaVuSans-33" transform="translate(405.603516 0)"/>
       <use xlink:href="#DejaVuSans-31" transform="translate(469.226562 0)"/>
      </g>
     </g>
    </g>
    <g id="ytick_20">
     <g id="line2d_27">
      <g>
       <use xlink:href="#m7102b62907" x="67.485938" y="266.6592" style="stroke: #000000; stroke-width: 0.8"/>
      </g>
     </g>
     <g id="text_28">
      <!-- ko:K03574 -->
      <g transform="translate(7.2 270.458419) scale(0.1 -0.1)">
       <use xlink:href="#DejaVuSans-6b"/>
       <use xlink:href="#DejaVuSans-6f" transform="translate(54.285156 0)"/>
       <use xlink:href="#DejaVuSans-3a" transform="translate(115.466797 0)"/>
       <use xlink:href="#DejaVuSans-4b" transform="translate(149.158203 0)"/>
       <use xlink:href="#DejaVuSans-30" transform="translate(214.734375 0)"/>
       <use xlink:href="#DejaVuSans-33" transform="translate(278.357422 0)"/>
       <use xlink:href="#DejaVuSans-35" transform="translate(341.980469 0)"/>
       <use xlink:href="#DejaVuSans-37" transform="translate(405.603516 0)"/>
       <use xlink:href="#DejaVuSans-34" transform="translate(469.226562 0)"/>
      </g>
     </g>
    </g>
    <g id="ytick_21">
     <g id="line2d_28">
      <g>
       <use xlink:href="#m7102b62907" x="67.485938" y="279.9648" style="stroke: #000000; stroke-width: 0.8"/>
      </g>
     </g>
     <g id="text_29">
      <!-- ko:K02034 -->
      <g transform="translate(7.2 283.764019) scale(0.1 -0.1)">
       <use xlink:href="#DejaVuSans-6b"/>
       <use xlink:href="#DejaVuSans-6f" transform="translate(54.285156 0)"/>
       <use xlink:href="#DejaVuSans-3a" transform="translate(115.466797 0)"/>
       <use xlink:href="#DejaVuSans-4b" transform="translate(149.158203 0)"/>
       <use xlink:href="#DejaVuSans-30" transform="translate(214.734375 0)"/>
       <use xlink:href="#DejaVuSans-32" transform="translate(278.357422 0)"/>
       <use xlink:href="#DejaVuSans-30" transform="translate(341.980469 0)"/>
       <use xlink:href="#DejaVuSans-33" transform="translate(405.603516 0)"/>
       <use xlink:href="#DejaVuSans-34" transform="translate(469.226562 0)"/>
      </g>
     </g>
    </g>
    <g id="ytick_22">
     <g id="line2d_29">
      <g>
       <use xlink:href="#m7102b62907" x="67.485938" y="293.2704" style="stroke: #000000; stroke-width: 0.8"/>
      </g>
     </g>
     <g id="text_30">
      <!-- ko:K02032 -->
      <g transform="translate(7.2 297.069619) scale(0.1 -0.1)">
       <use xlink:href="#DejaVuSans-6b"/>
       <use xlink:href="#DejaVuSans-6f" transform="translate(54.285156 0)"/>
       <use xlink:href="#DejaVuSans-3a" transform="translate(115.466797 0)"/>
       <use xlink:href="#DejaVuSans-4b" transform="translate(149.158203 0)"/>
       <use xlink:href="#DejaVuSans-30" transform="translate(214.734375 0)"/>
       <use xlink:href="#DejaVuSans-32" transform="translate(278.357422 0)"/>
       <use xlink:href="#DejaVuSans-30" transform="translate(341.980469 0)"/>
       <use xlink:href="#DejaVuSans-33" transform="translate(405.603516 0)"/>
       <use xlink:href="#DejaVuSans-32" transform="translate(469.226562 0)"/>
      </g>
     </g>
    </g>
    <g id="ytick_23">
     <g id="line2d_30">
      <g>
       <use xlink:href="#m7102b62907" x="67.485938" y="306.576" style="stroke: #000000; stroke-width: 0.8"/>
      </g>
     </g>
     <g id="text_31">
      <!-- ko:K03704 -->
      <g transform="translate(7.2 310.375219) scale(0.1 -0.1)">
       <use xlink:href="#DejaVuSans-6b"/>
       <use xlink:href="#DejaVuSans-6f" transform="translate(54.285156 0)"/>
       <use xlink:href="#DejaVuSans-3a" transform="translate(115.466797 0)"/>
       <use xlink:href="#DejaVuSans-4b" transform="translate(149.158203 0)"/>
       <use xlink:href="#DejaVuSans-30" transform="translate(214.734375 0)"/>
       <use xlink:href="#DejaVuSans-33" transform="translate(278.357422 0)"/>
       <use xlink:href="#DejaVuSans-37" transform="translate(341.980469 0)"/>
       <use xlink:href="#DejaVuSans-30" transform="translate(405.603516 0)"/>
       <use xlink:href="#DejaVuSans-34" transform="translate(469.226562 0)"/>
      </g>
     </g>
    </g>
    <g id="ytick_24">
     <g id="line2d_31">
      <g>
       <use xlink:href="#m7102b62907" x="67.485938" y="319.8816" style="stroke: #000000; stroke-width: 0.8"/>
      </g>
     </g>
     <g id="text_32">
      <!-- ko:K02028 -->
      <g transform="translate(7.2 323.680819) scale(0.1 -0.1)">
       <use xlink:href="#DejaVuSans-6b"/>
       <use xlink:href="#DejaVuSans-6f" transform="translate(54.285156 0)"/>
       <use xlink:href="#DejaVuSans-3a" transform="translate(115.466797 0)"/>
       <use xlink:href="#DejaVuSans-4b" transform="translate(149.158203 0)"/>
       <use xlink:href="#DejaVuSans-30" transform="translate(214.734375 0)"/>
       <use xlink:href="#DejaVuSans-32" transform="translate(278.357422 0)"/>
       <use xlink:href="#DejaVuSans-30" transform="translate(341.980469 0)"/>
       <use xlink:href="#DejaVuSans-32" transform="translate(405.603516 0)"/>
       <use xlink:href="#DejaVuSans-38" transform="translate(469.226562 0)"/>
      </g>
     </g>
    </g>
    <g id="ytick_25">
     <g id="line2d_32">
      <g>
       <use xlink:href="#m7102b62907" x="67.485938" y="333.1872" style="stroke: #000000; stroke-width: 0.8"/>
      </g>
     </g>
     <g id="text_33">
      <!-- ko:K02004 -->
      <g transform="translate(7.2 336.986419) scale(0.1 -0.1)">
       <use xlink:href="#DejaVuSans-6b"/>
       <use xlink:href="#DejaVuSans-6f" transform="translate(54.285156 0)"/>
       <use xlink:href="#DejaVuSans-3a" transform="translate(115.466797 0)"/>
       <use xlink:href="#DejaVuSans-4b" transform="translate(149.158203 0)"/>
       <use xlink:href="#DejaVuSans-30" transform="translate(214.734375 0)"/>
       <use xlink:href="#DejaVuSans-32" transform="translate(278.357422 0)"/>
       <use xlink:href="#DejaVuSans-30" transform="translate(341.980469 0)"/>
       <use xlink:href="#DejaVuSans-30" transform="translate(405.603516 0)"/>
       <use xlink:href="#DejaVuSans-34" transform="translate(469.226562 0)"/>
      </g>
     </g>
    </g>
   </g>
   <g id="line2d_33">
    <path clip-path="url(#p9dca6c9e40)" style="fill: none; stroke: #424242; stroke-width: 2.25; stroke-linecap: square"/>
   </g>
   <g id="line2d_34">
    <path clip-path="url(#p9dca6c9e40)" style="fill: none; stroke: #424242; stroke-width: 2.25; stroke-linecap: square"/>
   </g>
   <g id="line2d_35">
    <path clip-path="url(#p9dca6c9e40)" style="fill: none; stroke: #424242; stroke-width: 2.25; stroke-linecap: square"/>
   </g>
   <g id="line2d_36">
    <path clip-path="url(#p9dca6c9e40)" style="fill: none; stroke: #424242; stroke-width: 2.25; stroke-linecap: square"/>
   </g>
   <g id="line2d_37">
    <path clip-path="url(#p9dca6c9e40)" style="fill: none; stroke: #424242; stroke-width: 2.25; stroke-linecap: square"/>
   </g>
   <g id="line2d_38">
    <path clip-path="url(#p9dca6c9e40)" style="fill: none; stroke: #424242; stroke-width: 2.25; stroke-linecap: square"/>
   </g>
   <g id="line2d_39">
    <path clip-path="url(#p9dca6c9e40)" style="fill: none; stroke: #424242; stroke-width: 2.25; stroke-linecap: square"/>
   </g>
   <g id="line2d_40">
    <path clip-path="url(#p9dca6c9e40)" style="fill: none; stroke: #424242; stroke-width: 2.25; stroke-linecap: square"/>
   </g>
   <g id="line2d_41">
    <path clip-path="url(#p9dca6c9e40)" style="fill: none; stroke: #424242; stroke-width: 2.25; stroke-linecap: square"/>
   </g>
   <g id="line2d_42">
    <path clip-path="url(#p9dca6c9e40)" style="fill: none; stroke: #424242; stroke-width: 2.25; stroke-linecap: square"/>
   </g>
   <g id="line2d_43">
    <path clip-path="url(#p9dca6c9e40)" style="fill: none; stroke: #424242; stroke-width: 2.25; stroke-linecap: square"/>
   </g>
   <g id="line2d_44">
    <path clip-path="url(#p9dca6c9e40)" style="fill: none; stroke: #424242; stroke-width: 2.25; stroke-linecap: square"/>
   </g>
   <g id="line2d_45">
    <path clip-path="url(#p9dca6c9e40)" style="fill: none; stroke: #424242; stroke-width: 2.25; stroke-linecap: square"/>
   </g>
   <g id="line2d_46">
    <path clip-path="url(#p9dca6c9e40)" style="fill: none; stroke: #424242; stroke-width: 2.25; stroke-linecap: square"/>
   </g>
   <g id="line2d_47">
    <path clip-path="url(#p9dca6c9e40)" style="fill: none; stroke: #424242; stroke-width: 2.25; stroke-linecap: square"/>
   </g>
   <g id="line2d_48">
    <path clip-path="url(#p9dca6c9e40)" style="fill: none; stroke: #424242; stroke-width: 2.25; stroke-linecap: square"/>
   </g>
   <g id="line2d_49">
    <path clip-path="url(#p9dca6c9e40)" style="fill: none; stroke: #424242; stroke-width: 2.25; stroke-linecap: square"/>
   </g>
   <g id="line2d_50">
    <path clip-path="url(#p9dca6c9e40)" style="fill: none; stroke: #424242; stroke-width: 2.25; stroke-linecap: square"/>
   </g>
   <g id="line2d_51">
    <path clip-path="url(#p9dca6c9e40)" style="fill: none; stroke: #424242; stroke-width: 2.25; stroke-linecap: square"/>
   </g>
   <g id="line2d_52">
    <path clip-path="url(#p9dca6c9e40)" style="fill: none; stroke: #424242; stroke-width: 2.25; stroke-linecap: square"/>
   </g>
   <g id="line2d_53">
    <path clip-path="url(#p9dca6c9e40)" style="fill: none; stroke: #424242; stroke-width: 2.25; stroke-linecap: square"/>
   </g>
   <g id="line2d_54">
    <path clip-path="url(#p9dca6c9e40)" style="fill: none; stroke: #424242; stroke-width: 2.25; stroke-linecap: square"/>
   </g>
   <g id="line2d_55">
    <path clip-path="url(#p9dca6c9e40)" style="fill: none; stroke: #424242; stroke-width: 2.25; stroke-linecap: square"/>
   </g>
   <g id="line2d_56">
    <path clip-path="url(#p9dca6c9e40)" style="fill: none; stroke: #424242; stroke-width: 2.25; stroke-linecap: square"/>
   </g>
   <g id="line2d_57">
    <path clip-path="url(#p9dca6c9e40)" style="fill: none; stroke: #424242; stroke-width: 2.25; stroke-linecap: square"/>
   </g>
   <g id="patch_28">
    <path d="M 67.485938 339.84 
L 67.485938 7.2 
" style="fill: none; stroke: #000000; stroke-width: 0.8; stroke-linejoin: miter; stroke-linecap: square"/>
   </g>
   <g id="patch_29">
    <path d="M 513.885937 339.84 
L 513.885937 7.2 
" style="fill: none; stroke: #000000; stroke-width: 0.8; stroke-linejoin: miter; stroke-linecap: square"/>
   </g>
   <g id="patch_30">
    <path d="M 67.485938 339.84 
L 513.885937 339.84 
" style="fill: none; stroke: #000000; stroke-width: 0.8; stroke-linejoin: miter; stroke-linecap: square"/>
   </g>
   <g id="patch_31">
    <path d="M 67.485938 7.2 
L 513.885937 7.2 
" style="fill: none; stroke: #000000; stroke-width: 0.8; stroke-linejoin: miter; stroke-linecap: square"/>
   </g>
  </g>
 </g>
 <defs>
  <clipPath id="p9dca6c9e40">
   <rect x="67.485938" y="7.2" width="446.4" height="332.64"/>
  </clipPath>
 </defs>
</svg>
